<?xml version="1.0" standalone="no"?><!DOCTYPE svg PUBLIC "-//W3C//DTD SVG 1.1//EN" "http://www.w3.org/Graphics/SVG/1.1/DTD/svg11.dtd"><svg t="1510758401074" class="icon" style="" viewBox="0 0 1024 1024" version="1.1" xmlns="http://www.w3.org/2000/svg" p-id="1899" xmlns:xlink="http://www.w3.org/1999/xlink" width="32" height="32"><defs><style type="text/css"></style></defs><path d="M448.512 799.744c0 17.344 13.824 31.744 31.744 31.744h64c17.344 0 31.744-14.336 31.744-31.744S562.176 768 544.256 768h-64a31.616 31.616 0 0 0-31.744 31.744zM0 512c0 282.624 229.376 512 512 512s512-229.376 512-512-229.376-512-512-512-512 229.376-512 512z m64 0c0-247.296 200.704-448 448-448 247.232 0 448 200.704 448 448s-200.768 448-448 448c-247.296 0-448-200.704-448-448z m267.776-68.608A52.672 52.672 0 0 0 320 484.864c2.048 15.36 15.36 27.136 31.232 27.136H448v160.256c0 17.344 13.824 31.744 31.744 31.744h64a31.616 31.616 0 0 0 31.744-31.744V512h95.232a31.424 31.424 0 0 0 31.168-27.136 52.352 52.352 0 0 0-11.712-41.472l-148.992-171.52c-16.896-18.944-43.52-18.944-59.904 0l-149.504 171.52z" p-id="1900" fill="#2c2c2c"></path></svg>